<?xml version="1.0" encoding="UTF-8" standalone="no"?>
<svg xmlns="http://www.w3.org/2000/svg" xml:space="preserve" width="600" height="600" version="1.0">
  <path fill="orangered" d="M9.83384 496.17685c0-9.14585 39.629978-55.05852 88.068957-102.03284 48.435973-46.97131 95.115553-92.58022 103.732073-101.35313 8.61652-8.77291-.33383-59.69309-19.88566-113.15461-40.50817-110.751612-44.2014-147.581597-16.23756-161.954495 38.21946-19.642057 90.66745 9.377421 134.69742 74.523126l44.6044 65.996829 83.7622-68.36374c55.07656-44.950266 94.39075-64.97127 114.79972-58.460008 40.37885 12.887187 63.68406 63.308116 33.16684 71.768248-34.63751 9.59997-177.99054 191.01908-177.71686 224.90471.12932 16.04808 20.49619 58.64046 45.26305 94.6524 17.47063 25.39844 40.95027 45.44049 31.62999 59.2179l-49.82544 73.64493c-9.66313 14.28268-45.35929-23.79843-87.6449-60.76376l-73.76222-64.48104-81.77123 80.64642c-44.97433 44.35478-86.965201 80.41785-93.308042 80.13815-6.342842-.2797-79.572738-85.78626-79.572738-94.92909z"/>
</svg>